<?xml version="1.0" encoding="UTF-8"?>
<svg id="Layer_1" xmlns="http://www.w3.org/2000/svg" version="1.1" xmlns:xlink="http://www.w3.org/1999/xlink" viewBox="0 0 49 56">
  <!-- Generator: Adobe Illustrator 29.0.0, SVG Export Plug-In . SVG Version: 2.1.0 Build 186)  -->
  <defs>
    <style>
      .st0 {
        fill: #f7b000;
      }

      .st1 {
        fill: url(#linear-gradient);
      }
    </style>
    <linearGradient id="linear-gradient" x1="-7.61" y1="49.14" x2="41.17" y2="20.29" gradientUnits="userSpaceOnUse">
      <stop offset="0" stop-color="#0096db"/>
      <stop offset="1" stop-color="#d24f9c"/>
    </linearGradient>
  </defs>
  <polygon class="st0" points="20.41 40.71 17.44 48.59 15.61 53.45 24.5 53.45 24.5 49.67 24.5 41.27 24.5 29.82 20.41 40.71"/>
  <path class="st1" d="M47.89,26.28c0-12.92-10.47-23.39-23.39-23.39S1.11,13.36,1.11,26.28c0,7.16,3.22,13.57,8.29,17.86l-.99,1.72c-1.95,3.37.49,7.59,4.38,7.59h2.82l1.83-4.86,2.96-7.88,4.09-10.89,4.09,10.87,2.97,7.89,1.83,4.86h2.82c3.9,0,6.33-4.22,4.38-7.59l-.99-1.72-4.32-7.48-6.4-11.08c-1.95-3.37-6.82-3.37-8.77,0l-6.42,11.12c-2.61-2.7-4.22-6.37-4.22-10.42,0-8.28,6.71-14.99,14.99-14.99s14.99,6.71,14.99,14.99c0,3.59-1.27,6.89-3.38,9.47l3.51,8.39c5.07-4.29,8.29-10.7,8.29-17.86Z"/>
</svg>
